<svg xmlns="http://www.w3.org/2000/svg" version="1.1" xmlns:xlink="http://www.w3.org/1999/xlink" xmlns:svgjs="http://svgjs.dev/svgjs" width="128" height="128" viewBox="0 0 128 128"><g transform="matrix(0.5421052631578948,0,0,0.5421052631578948,29.45742775927159,12.760752631578946)"><svg viewBox="0 0 64 95" data-background-color="#ffffff" preserveAspectRatio="xMidYMid meet" height="190" width="128" xmlns="http://www.w3.org/2000/svg" xmlns:xlink="http://www.w3.org/1999/xlink"><g id="tight-bounds" transform="matrix(1,0,0,1,-0.14034599156117622,-0.24049999999999727)"><svg viewBox="0 0 64.28069198312237 95.481" height="95.481" width="64.28069198312237"><g><svg viewBox="0 0 64.28069198312237 95.481" height="95.481" width="64.28069198312237"><g><svg viewBox="0 0 64.28069198312237 95.481" height="95.481" width="64.28069198312237"><g id="textblocktransform"><svg viewBox="0 0 64.28069198312237 95.481" height="95.481" width="64.28069198312237" id="textblock"><g><svg viewBox="0 0 64.28069198312237 95.481" height="95.481" width="64.28069198312237"><g><svg viewBox="0 0 64.28069198312237 95.481" height="95.481" width="64.28069198312237"><g><svg xmlns="http://www.w3.org/2000/svg" xmlns:xlink="http://www.w3.org/1999/xlink" version="1.1" x="0" y="0" viewBox="34.20399999999999 26.537 31.592 46.925999999999995" enable-background="new 0 0 100 100" xml:space="preserve" height="95.481" width="64.28069198312237" class="icon-icon-0" data-fill-palette-color="accent" id="icon-0"><path d="M50.001 26.537c-4.958 0-15.797 16.146-15.797 28.296 0 11.665 5.905 18.63 15.797 18.63 9.891 0 15.795-6.965 15.795-18.63C65.796 42.683 54.958 26.537 50.001 26.537zM43.122 54.833c0-6.802 2.755-14.608 5.593-19.871V69.6C45.091 67.47 43.122 62.354 43.122 54.833zM51.287 69.601V34.962c2.839 5.262 5.594 13.067 5.594 19.871C56.881 62.354 54.91 67.47 51.287 69.601zM37.13 54.833c0-9.81 7.379-21.114 11.204-24.417 0.024 0.034 0.032 0.075 0.059 0.107 0.001 0.001 0.001 0.002 0.002 0.003-3.621 5.276-7.847 15.432-7.847 24.306 0 6.52 1.493 11.575 4.218 14.737C39.857 67.556 37.13 62.434 37.13 54.833zM55.235 69.57c2.726-3.163 4.218-8.219 4.218-14.737 0-8.876-4.227-19.031-7.849-24.307 0.001-0.001 0.002-0.002 0.003-0.003 0.027-0.032 0.035-0.072 0.059-0.106 3.827 3.304 11.204 14.609 11.204 24.416C62.87 62.433 60.144 67.555 55.235 69.57z" fill="#000000" data-fill-palette-color="accent"></path></svg></g></svg></g></svg></g></svg></g></svg></g></svg></g><defs></defs></svg><rect width="64.28069198312237" height="95.481" fill="none" stroke="none" visibility="hidden"></rect></g></svg></g></svg>